<svg viewBox="0 0 42 45" xmlns="http://www.w3.org/2000/svg"> <g fill-rule="evenodd"> <path fill="#ff5722" d="M30.223 9.144s1.897-.331 3.32 0c0 0 2.096-1.657 2.136-7.169L37.142 0s2.293 4.89-.316 10.043c0 0 1.897 1.297 2.174 2.085l-.272.872A28.91 28.91 0 0 0 30 10.042M0 44.987c.018 0 8.966.445 19-3.945A51.561 51.561 0 0 1 11.804 37 45.684 45.684 0 0 1 0 44.987M33 30.319a33.982 33.982 0 0 1-8.84-3.107c-1.92 2.763-4.37 5.648-7.43 8.155 0 0 3.202-3.337 6.12-8.865A34.328 34.328 0 0 1 20.464 25 43.372 43.372 0 0 1 14 34.54 45.646 45.646 0 0 0 22.214 39 43.649 43.649 0 0 0 33 30.319M27.419 14.54l3.157.776s-1.29 4.232-4.336 9.44A31.638 31.638 0 0 0 36.05 28 47.417 47.417 0 0 0 42 17.358C37.06 13.993 31.152 12.025 24.802 12A47.952 47.952 0 0 1 22 22.099a32.69 32.69 0 0 0 2.545 1.703c1.183-2.745 2.226-5.86 2.874-9.262"></path> </g> </svg>