<svg xmlns="http://www.w3.org/2000/svg" width="105.41" height="100.25" viewBox="0 0 105.41 100.25"><title>coin</title><path d="M357,399.24a53.41,53.41,0,0,1-2.49,10.83,67.93,67.93,0,0,1-4,9.56,57.71,57.71,0,0,1-4.7,7.71,56.94,56.94,0,0,1-9.55,10.26,34.56,34.56,0,0,1-11.39,5.24,44.3,44.3,0,0,1-8.2,1l-1.58.11c-2,.13-4,.29-6.05.48-1.62.12-3.25.18-4.87.18-.82,0-1.63,0-2.44-.05a52.47,52.47,0,0,1-11.12-1.47,41.32,41.32,0,0,1-9-3.62,57.28,57.28,0,0,1-17.44-14.13,40.6,40.6,0,0,1-7.58-13.86,51.34,51.34,0,0,1-1.45-19.42,48.65,48.65,0,0,1,1.94-8.35,49.78,49.78,0,0,1,2.09-5.35c.74-1.56,1.49-3.07,2.29-4.6s1.6-3,2.46-4.49c1-1.3,2.05-2.52,3.15-3.75,1.56-1.73,3.22-3.41,4.94-5a43.12,43.12,0,0,1,4.71-3.92A45.24,45.24,0,0,1,280.9,354a42.64,42.64,0,0,1,5.93-3,42.21,42.21,0,0,1,5.5-1.83,36,36,0,0,1,5.88-1.41,35.25,35.25,0,0,1,6.65-.37c1.19,0,2.37.08,3.55.19s2.36.26,3.52.47a44.75,44.75,0,0,1,8.89,2.73,64.07,64.07,0,0,1,11,5.94,64.92,64.92,0,0,1,9.41,7.67,87.82,87.82,0,0,1,7.17,8.45c3.71,4.86,6,8.88,7.32,12.64a37.82,37.82,0,0,1,1.12,4.08A44,44,0,0,1,357,399.24Z" transform="translate(-253.29 -345.87)" fill="#F7F7F9" stroke="#F7F7F9" stroke-miterlimit="10" stroke-width="3"/></svg>