<svg xmlns="http://www.w3.org/2000/svg">
    <defs>
        <clipPath id="coin-path-small">
            <path d="M81.85,43.54a43,43,0,0,1-2,8.67,54.57,54.57,0,0,1-3.2,7.66A46.14,46.14,0,0,1,65.24,74.26a27.74,27.74,0,0,1-9.12,4.2,35.43,35.43,0,0,1-6.57.8l-1.27.09c-1.6.1-3.2.23-4.84.38-1.3.1-2.6.14-3.9.14-.66,0-1.31,0-1.95,0a41.77,41.77,0,0,1-8.91-1.17,33.37,33.37,0,0,1-7.21-2.9,45.92,45.92,0,0,1-14-11.32,32.43,32.43,0,0,1-6.07-11.1A41,41,0,0,1,.28,37.79a39,39,0,0,1,1.55-6.68A41.38,41.38,0,0,1,3.5,26.82c.6-1.25,1.2-2.46,1.84-3.68s1.28-2.4,2-3.6c.8-1,1.64-2,2.52-3,1.25-1.39,2.58-2.73,4-4A33.2,33.2,0,0,1,17.56,9.4a36.08,36.08,0,0,1,3.35-2.09,34.54,34.54,0,0,1,4.74-2.4,33,33,0,0,1,4.41-1.46A28.43,28.43,0,0,1,40.09,2c1,0,1.9.07,2.85.15s1.89.21,2.81.38a35.33,35.33,0,0,1,7.12,2.19,50.54,50.54,0,0,1,8.81,4.75,52.94,52.94,0,0,1,7.54,6.14A72.55,72.55,0,0,1,75,22.4a37.39,37.39,0,0,1,5.86,10.12,31,31,0,0,1,.9,3.27A35.86,35.86,0,0,1,81.85,43.54Z" transform="translate(0.5 -1.5)" fill="none" stroke="#000" stroke-miterlimit="10"/>
        </clipPath>
    </defs>
</svg>