<svg xmlns="http://www.w3.org/2000/svg" width="30" height="30" viewBox="0 0 30 30"><title>revealbot-coral</title><path d="M0,4.17a4,4,0,0,1,4-4H26a4,4,0,0,1,4,4v22a4,4,0,0,1-4,4H4a4,4,0,0,1-4-4Z" transform="translate(0 -0.17)" fill="#fa7061"/><g opacity="0.8"><path d="M14.12,23.64a1.25,1.25,0,0,1,0-1.77L23,13a1.25,1.25,0,1,1,1.77,1.76l-8.84,8.84A1.24,1.24,0,0,1,14.12,23.64Z" transform="translate(0 -0.17)" fill="#fff"/><path d="M11.12,20.64a1.25,1.25,0,0,1,0-1.77L20,10a1.25,1.25,0,1,1,1.77,1.76l-8.84,8.84A1.24,1.24,0,0,1,11.12,20.64Z" transform="translate(0 -0.17)" fill="#fff"/><path d="M8.12,17.64a1.25,1.25,0,0,1,0-1.77L17,7A1.25,1.25,0,1,1,18.72,8.8L9.88,17.64A1.24,1.24,0,0,1,8.12,17.64Z" transform="translate(0 -0.17)" fill="#fff"/></g><g opacity="0.8"><path d="M15.88,23.64a1.25,1.25,0,0,0,0-1.77L7,13A1.24,1.24,0,1,0,5.28,14.8l8.83,8.84A1.25,1.25,0,0,0,15.88,23.64Z" transform="translate(0 -0.17)" fill="#fff"/><path d="M18.88,20.64a1.25,1.25,0,0,0,0-1.77L10,10A1.24,1.24,0,0,0,8.28,11.8l8.83,8.84A1.25,1.25,0,0,0,18.88,20.64Z" transform="translate(0 -0.17)" fill="#fff"/><path d="M21.88,17.64a1.25,1.25,0,0,0,0-1.77L13,7A1.24,1.24,0,0,0,11.28,8.8l8.83,8.84A1.25,1.25,0,0,0,21.88,17.64Z" transform="translate(0 -0.17)" fill="#fff"/></g></svg>