<svg width="39" height="36" xmlns="http://www.w3.org/2000/svg"><g fill-rule="nonzero" fill="#ffffff" ><path d="M35.866 12.823s-1.274.323-2.593-1.042c0 0 .511.058.643-.69 0 0 .719 1.482 1.95 1.732m-.468 6.123s-.201 1.487-2.04 1.487c-1.837 0-3.441-2.607-4.074-8.572.454.71.919 1.392 1.265 2.194 0-.84.392-2.237-1.476-3.671 0 0 4.945 1.03 5.062 6.12 0 .877-.514 1.78-.844 2.11 0 0-.225.195-.085.48.139.285.483.218.95-.097.466-.314 1.242-.853 1.242-.05M28.44 21.78s-1.338 2.533-3.156 2.533c-.743 0-1.273-.531-1.273-1.266s.9-3.367 4.811-3.367c.935 0 1.667.171 1.667.736s-.887 1.537-2.049 1.364m0-12.662s-.515-.102-.35-.875c.082-.261.14-.257.14-.656 0-.4.104-.864.421-1.001 0 0 .543 0 .543 1.424 0 .616-.754 1.108-.754 1.108m-1.687 0c-.755-.08-.218-1.304-.76-1.379-.21-.028-.26 1.384-.506 1.168-.486-.428-.127-1.302-.076-1.71.051-.408.25-.919-.19-.611-.44.307-.675.954-.825 1.506-.149.55.15.813.355 1.451.204.639-.176.42-.176.42-2.048-1.23-.572-3.817-.572-3.817.887-1.519 2.216-1.065 2.216-1.065.258.092.323.243.323.566 0 .323.086.426.467.516.382.091.562.56.562 1.319 0 .76-.48 1.672-.818 1.636m3.145-.14l3.37 1.02s.619 1.152-.628.814a74.572 74.572 0 0 1-2.463-.719s-.66-.337-.279-1.115m-16.57 5.077c-2.39.426-3.236-.308-3.236-.927 0-1.89 5.431-3.354 6.96-3.377.308.466-.234.386-.456 1.089-.221.703-.761.926-1.552 1.021a4.094 4.094 0 0 0-2.141.987c-.485.446 0 .65.986.366.965-.278 1.082.137 1.476-.01.395-.147.044-.622.211-.71.255-.132.782.228.782.228l1.373.874s-1.543.785-1.651.846c-.109.06-.293.162-.293.373 0 .335.855.212 1.148.212.294 0 .339.48.339.48-.45.52-1.618.524-1.618.524.26.552 1.732.462 2.029.473.297.01.328.428.478 1.111.15.683 1.104.974 1.104.974.308 1.013-.91 1.306-1.716 1.306-4.721 0-4.223-5.84-4.223-5.84m.537-7.511a.146.146 0 0 1-.128-.126c-.256-1.892.574-4.2.574-4.2s-2.014 1.626-1.936 4.225c-1.709-.044-4.221.142-5.704 1.41-2.078 1.775-2.42 5.126-2.474 6.006a.14.14 0 0 1-.211.11c-.49-.296-1.645-1.273-.814-3.585C4.207 7.5 7.405 1.52 13.783 1.116c0 0 1.952-.082 3.27.619a.146.146 0 0 1 .023.242c-.547.436-2.246 1.959-2.856 4.48a.146.146 0 0 1-.16.11 11.527 11.527 0 0 0-.195-.023m4.742 7.937s.59 2.58 1.774 3.492c0 0-.045.26-.418.26s-1.077-.597-1.356-1.991c-.279-1.394 0-1.761 0-1.761m1.774-6.413c-1.495 0-2.155-1.271-2.155-1.271s1.715 1.624 4.098.303c0 0-.447.968-1.943.968m18.374 2.152c-.378-.77-.968-1.389-2.095-1.666-1.097-.27-2.065-.131-2.728.448l-2.196-.746a17.049 17.049 0 0 1-.604-1.457 1.57 1.57 0 0 0-.705-.846c-1.437-.82-5.33-2.768-6.838-.778 0 0-.079.089-.186.247l-.47-.16c-.244-.848-1.047-1.498-2.16-1.772-.685-.168-1.359-.126-1.918.08-.407.15-.426.626-.018.77l1.753.615c.397.14.607.575.467.973l-.002.006a.763.763 0 0 1-.972.467l-1.898-.563a.539.539 0 0 0-.668.676c.252.84 1.078 1.584 2.182 1.855.938.23 1.855.066 2.485-.373l.412.14c.03.955.767 2.095 1.456 2.504 1.056.627 2.024.07 3.123-.467 0 0 2.752 2.2 1.476 8.441-3.523.371-4.797 1.64-6.077 2.92-.8-.318-3.222-.474-4.511-.176.365-.365.971-.797 1.714-1.085a.877.877 0 0 0 .56-.818s1.613-.516 1.613-1.109-1.992-.533-2.81-4.796c-.133-.495-.283-.91-1.044-1.267 0 0-.212-.446.096-.935.307-.488.52-.715.438-1.102-.081-.387-.663-.706-.663-.706v-.65S16.348 7.701 16.348 6c0-1.703 2.218-3.747 2.82-4.34a.157.157 0 0 0 .048-.133.163.163 0 0 0-.08-.115C18.36.93 16.818.07 14.447.07 5.079.07 2.887 8.48.879 12.565a.32.32 0 0 0-.006.286c2.003 4 5.24 3.674 5.417 7.028.141 2.682-.486 2.742-1.11 2.685-.41-.038-1.01-.404-1.374-.651a.141.141 0 0 0-.213.161c.244.732.954 2.239 3.023 2.239 1.052 0 1.374-.955 1.374-1.835v-3.032c0-.299-.086-.582-.312-.777-.713-.613-2.223-2.085-2.223-3.391 0-.558.374-.849.808-.849.813 0 1.602 1.224 2.213 2.768.143.36.348.615.536.74.029.02.068.019.096-.002a.084.084 0 0 0 .032-.09c-.252-.896-.335-1.832-.362-2.293a.67.67 0 0 0-.233-.47c-.604-.516-2.239-2.138-2.239-4.561 0-3.265 5.194-2.992 6.242-2.903.312 1.09.963 1.56 1.397 1.76-1.571.58-5.118 1.742-5.118 3.752 0 2.154 3.555 1.997 3.555 1.997s-.565 4.301 3.439 5.598c0 0-.625.633-2.776.633-2.007 0-2.987-.896-3.464-1.955a.121.121 0 0 0-.223.005c-.11.274-.196.77.184 1.392.59.963 1.35 1.516 1.35 2.74 0 .905-.81 1.472-1.143 1.667a.062.062 0 0 0 .016.114c.789.19 4.377 1.092 6.792 2.24.02.009.042.007.06-.004.27-.17 2.36-1.536 2.48-3.337 0 0 .158-1.177-1.6-1.39 0 0 .761-.295 2.137-.295 1.371 0 2.868 1.114.172 6.66a.062.062 0 0 0 .023.079c.414.26 3.481 2.218 5.443 4.122a.217.217 0 0 0 .324-.024c.253-.336.743-1.235 1.104-3.446a.535.535 0 0 1 .38-.428c1.17-.338 5.182-1.64 6.938-4.056 2.068-2.847 2.785-3.154 2.785-3.154s1.354-.758.78-2.764c-.298-1.048-1.874-3.795-3.424-6.608.358.257.785.457 1.261.575.943.231 1.866.086 2.528-.327a.446.446 0 0 0-.089-.8l-1.744-.612a.808.808 0 0 1-.495-1.03l.003-.006a.807.807 0 0 1 1.029-.495l1.557.546a.428.428 0 0 0 .444-.101c.117-.117.175-.298.102-.446M3.84 32.341s2.03.812 2.03 1.624c0 0-.122.61-.812.61-.69 0-1.622-1.091-1.622-1.625 0-.533.405-.609.405-.609z"/><path d="M1.702 22.334a.142.142 0 0 0-.195-.099c-.396.174-1.054.65-1.054 1.637 0 3.642 9.818 4.053 15.132 10.571a2.99 2.99 0 0 0 2.371 1.1c1.206-.023 2.41-.087 3.475-.258a.37.37 0 0 0 .244-.579C15.2 25.483 2.878 27.616 1.702 22.334M15.777 10.93c-.63-.631-2.416-.15-3.376.665-.987.836-.595 1.397-.595 1.397.802-1.131 2.057-1.593 2.764-1.683.87-.11 1.207-.38 1.207-.38M15.068 15.214s-.694.185-.508 1.143c.187.966.973.991.973.991-.683-.795-.465-2.134-.465-2.134M3.456 28.544c2.4 1.362 7.7 2.946 8.809 5.796 0 0 .378.633-1.714.633-1.585 0-2.011-.385-3.137-1.688-1.653-1.913-4.93-3.027-4.93-4.504 0 0 .022-.776.972-.237"/></g></svg>