<svg xmlns="http://www.w3.org/2000/svg">
    <defs>
        <clipPath id="coin-path-tiny">
            <path d="M44.92,23.8a23.65,23.65,0,0,1-1.1,4.76,29.61,29.61,0,0,1-1.76,4.2A26.63,26.63,0,0,1,40,36.15a24.89,24.89,0,0,1-4.2,4.5,15.19,15.19,0,0,1-5,2.31,20,20,0,0,1-3.61.44l-.69.05c-.88,0-1.76.12-2.66.21-.71.05-1.43.08-2.14.08-.36,0-.72,0-1.07,0a23,23,0,0,1-4.89-.64,18.85,18.85,0,0,1-4-1.59,25.43,25.43,0,0,1-7.66-6.21A17.85,17.85,0,0,1,.79,29.18a22.57,22.57,0,0,1-.64-8.54A22.19,22.19,0,0,1,1,17a24.87,24.87,0,0,1,.92-2.35c.33-.68.66-1.35,1-2s.7-1.32,1.08-2S4.91,9.52,5.4,9c.68-.76,1.41-1.5,2.17-2.2A18,18,0,0,1,9.64,5.06a19.25,19.25,0,0,1,1.83-1.14A18.79,18.79,0,0,1,14.08,2.6a19.63,19.63,0,0,1,2.42-.81,17.31,17.31,0,0,1,2.58-.62A15.85,15.85,0,0,1,22,1c.52,0,1,0,1.56.09s1,.11,1.55.2A19.85,19.85,0,0,1,29,2.5a28.67,28.67,0,0,1,9,6,38.78,38.78,0,0,1,3.16,3.72,20.37,20.37,0,0,1,3.21,5.55,16.38,16.38,0,0,1,.49,1.79A19.57,19.57,0,0,1,44.92,23.8Z" transform="translate(0.5 -0.5)" fill="none" stroke="#000" stroke-miterlimit="10"/>
        </clipPath>
    </defs>
</svg>