<svg xmlns="http://www.w3.org/2000/svg">
    <defs>
        <clipPath id="coin-path" clipPathUnits="objectBoundingBox">
            <path d="M103.71,53.37a53.52,53.52,0,0,1-2.49,10.83,68.94,68.94,0,0,1-4,9.56A57.12,57.12,0,0,1,83,91.73,34.62,34.62,0,0,1,71.58,97a44.39,44.39,0,0,1-8.2,1l-1.58.11c-2,.13-4,.29-6,.48-1.62.12-3.25.18-4.87.18-.82,0-1.63,0-2.44,0a52.09,52.09,0,0,1-11.12-1.47,41.24,41.24,0,0,1-9-3.62A57.21,57.21,0,0,1,10.88,79.47,40.54,40.54,0,0,1,3.3,65.61,51.29,51.29,0,0,1,1.85,46.19a49.71,49.71,0,0,1,4-13.7c.74-1.56,1.49-3.07,2.29-4.6s1.6-3,2.46-4.49c1-1.3,2-2.52,3.15-3.75,1.56-1.73,3.22-3.41,4.94-5a42.93,42.93,0,0,1,4.71-3.92,46.21,46.21,0,0,1,4.18-2.6,42.82,42.82,0,0,1,5.93-3A41.23,41.23,0,0,1,39,3.3a36,36,0,0,1,5.88-1.41,35.25,35.25,0,0,1,6.65-.37c1.19,0,2.37.08,3.55.19s2.36.26,3.52.47a44.58,44.58,0,0,1,8.89,2.73,64.46,64.46,0,0,1,11,5.94,65.39,65.39,0,0,1,9.41,7.67A87.45,87.45,0,0,1,95.11,27a46.6,46.6,0,0,1,7.32,12.64,38.47,38.47,0,0,1,1.12,4.08A44.13,44.13,0,0,1,103.71,53.37Z" transform="translate(-1 -0.99)" fill="ffffff" stroke="#000" stroke-width="1.5794" stroke-miterlimit="10">
            </path>
        </clipPath>
    </defs>
</svg>