<svg xmlns="http://www.w3.org/2000/svg" width="150.97" height="143.42" viewBox="0 0 150.97 143.42"><title>coin-path2</title><path d="M119.45,63.63a62.5,62.5,0,0,1-2.91,12.66,79.61,79.61,0,0,1-4.67,11.17,68,68,0,0,1-5.5,9,66.43,66.43,0,0,1-11.16,12,40.3,40.3,0,0,1-13.31,6.12,51.51,51.51,0,0,1-9.58,1.17l-1.85.13c-2.34.15-4.68.34-7.07.56-1.89.14-3.8.21-5.69.21-1,0-1.91,0-2.85-.05a61.87,61.87,0,0,1-13-1.72,49.16,49.16,0,0,1-10.52-4.23A66.91,66.91,0,0,1,11,94.13,47.22,47.22,0,0,1,2.1,77.93,59.88,59.88,0,0,1,.41,55.24a56.19,56.19,0,0,1,2.26-9.76,57.84,57.84,0,0,1,2.45-6.25C6,37.4,6.86,35.64,7.79,33.85s1.87-3.51,2.88-5.25c1.17-1.52,2.39-2.94,3.68-4.38,1.82-2,3.76-4,5.77-5.84a49.2,49.2,0,0,1,5.51-4.58,50.26,50.26,0,0,1,4.88-3A49.34,49.34,0,0,1,43.87,5.11a42.68,42.68,0,0,1,6.87-1.65A41.26,41.26,0,0,1,58.51,3c1.39,0,2.77.09,4.15.22s2.76.31,4.12.55A52.65,52.65,0,0,1,77.17,7,76.8,76.8,0,0,1,101,22.9a101.24,101.24,0,0,1,8.38,9.88c4.34,5.68,7,10.37,8.55,14.77a41,41,0,0,1,1.31,4.77A51.53,51.53,0,0,1,119.45,63.63Z" transform="translate(0.5 -2.5)" fill="none" stroke="#000" stroke-miterlimit="10"/></svg>