<svg xmlns="http://www.w3.org/2000/svg" width="12" height="20" viewBox="0 0 12 20"><title>time2-grey</title><path fill="#7F7F7F" d="M8,17.65c.68-.58,1.45-1.21,2.3-1.9s1.15-.92,1.65-.92.89.31,1.67.94c.51.41,1.32,1.06,2.38,1.88v2.46l-8,.08" transform="translate(-6 -2)"/><path fill="#7F7F7F" d="M8,2A2,2,0,0,0,6,4V7.17a2,2,0,0,0,.59,1.42L10,12,6.58,15.42A2,2,0,0,0,6,16.84V20a2,2,0,0,0,2,2h8a2,2,0,0,0,2-2V16.84a2,2,0,0,0-.58-1.41L14,12l3.41-3.4A2,2,0,0,0,18,7.18V4a2,2,0,0,0-2-2Zm8,14.5V19a1,1,0,0,1-1,1H9a1,1,0,0,1-1-1V16.5l4-4Zm-4-5-4-4V5A1,1,0,0,1,9,4h6a1,1,0,0,1,1,1V7.5Z" transform="translate(-6 -2)"/></svg>