<?xml version="1.0" encoding="utf-8"?>
<!-- Generator: Adobe Illustrator 23.0.4, SVG Export Plug-In . SVG Version: 6.00 Build 0)  -->
<svg version="1.1" id="Layer_1" xmlns="http://www.w3.org/2000/svg" xmlns:xlink="http://www.w3.org/1999/xlink" x="0px" y="0px" style="enable-background:new 0 0 612 792;" xml:space="preserve">
<style type="text/css">
	.st0{fill:none;stroke:#BEA761;stroke-width:16;stroke-miterlimit:10;}
</style>
<path class="st0" d="M2621.5,546.05c-13.77,137.63-53.9,312.4-113.02,492.11c-48.62,147.76-109.52,293.8-181.03,434.07
	c-61.54,121.93-133.21,239.71-213.04,350.06c-124.4,171.97-270.45,328.78-434.09,466.09c-161.59,112.66-335.59,192.76-517.2,238.11
	c-120.93,30.19-237.58,37.66-372.64,46.31c-23.13,1.49-47.05,3.02-71.45,4.7c-91.6,6.31-181.55,13.5-274.99,22
	c-73.51,5.38-147.45,8.08-220.91,8.08c-37.21,0-74.3-0.69-111.15-2.08c-192.55-7.25-371.93-31.05-505.11-67.02
	c-141.87-38.31-279.51-93.5-409.11-164.04c-147.14-77.27-287.46-169.14-417.07-273.05c-136.88-109.74-263.07-233.91-375.08-369.07
	c-76.63-91.69-144.61-191.3-202.05-296.08c-58.03-105.86-105.82-217.92-142.04-333.09c-37.57-138.49-62.47-281.18-74.02-424.11
	c-12.3-152.2-9.6-306.33,8-458.1c18.36-128.49,47.97-256.04,88.02-379.09c26.83-82.42,58.8-164.2,95.03-243.06
	c33.57-71.03,67.59-139.4,104.01-209.02c36.3-69.4,72.94-136.14,112.01-204.02c46.3-58.84,93.08-114.46,143.06-170.08
	c70.77-78.78,146.15-155.16,224.03-227.04c66.78-64.23,138.8-124.13,214.05-178.04c60.71-43.48,124.65-83.87,190.05-120.03
	c85.83-51.7,176.35-97.13,269.05-135.02c81.08-33.14,165.21-61.08,250.07-83.02c86.79-28.81,176.65-50.35,267.05-64.01
	c99.65-15.07,201.29-20.8,302.09-17.01c53.7,0.68,107.56,3.55,161.19,8.57c53.64,5.01,107.05,12.17,159.88,21.44
	c116.2,20.39,259.48,64.53,403.44,124.29c172.72,71.7,341.53,162.47,501.75,269.78c154.21,103.29,297.9,220.4,427.07,348.06
	c86.18,85.17,201.97,221.56,326.05,384.06c168.48,220.64,274,403.08,332.07,574.14c20.48,60.31,37.64,122.58,51.02,185.06
	C2634.37,252.76,2636.05,400.5,2621.5,546.05z"/>
</svg>
