<svg id="Layer_1" data-name="Layer 1" xmlns="http://www.w3.org/2000/svg" viewBox="0 0 512 428.98" role="img"><title id="change-theme">Change theme svg</title><g id="building"><path d="M503.55,494.54H437.86V433.46h7.93a8.45,8.45,0,0,0,0-16.9h-7.93V355.48h7.93a8.45,8.45,0,1,0,0-16.89H251.28L220.86,265.8a8.46,8.46,0,0,0-7.8-5.19H63.88a8.45,8.45,0,0,0,0,16.9h7.93v61.08H63.88a8.45,8.45,0,1,0,0,16.89h7.93v61.08H63.88a8.45,8.45,0,0,0,0,16.9h7.93v61.08H8.45a8.45,8.45,0,0,0,0,16.9h495.1a8.45,8.45,0,0,0,0-16.9ZM421,355.48v61.08h-7.84V393.47a27.63,27.63,0,0,0-27.6-27.6h0a27.64,27.64,0,0,0-27.6,27.6v23.09H347.78V393.47a27.64,27.64,0,0,0-27.61-27.6h0a27.63,27.63,0,0,0-27.6,27.6v23.09h-8.69l-25.53-61.07Zm-24.74,38v23.09H374.81V393.47a10.71,10.71,0,0,1,21.41,0Zm-65.34,0v23.09H309.47V393.47a10.71,10.71,0,0,1,21.41,0Zm-65.32,23.09H235.12V393.47a27.6,27.6,0,1,0-55.2,0v23.09H151.75V393.47a27.63,27.63,0,0,0-27.6-27.6h0a27.63,27.63,0,0,0-27.6,27.6v23.09H88.71V355.49H240Zm-47.34-23.09v23.09h-21.4V393.47a10.7,10.7,0,1,1,21.4,0Zm-83.37,0v23.09h-21.4V393.47a10.7,10.7,0,1,1,21.4,0Zm-21.4-54.89V315.49a10.7,10.7,0,1,1,21.4,0v23.09Zm65.34,0V315.49a10.7,10.7,0,1,1,21.4,0v23.09ZM88.71,277.51H207.43L233,338.58H217.09V315.49a27.63,27.63,0,0,0-27.6-27.6h0a27.63,27.63,0,0,0-27.6,27.6v23.09H151.75V315.49a27.63,27.63,0,0,0-27.6-27.6h0a27.63,27.63,0,0,0-27.6,27.6v23.09H88.71V277.51Zm46.14,217h-21.4V471.45a10.7,10.7,0,1,1,21.4,0v23.09Zm65.35,0H178.79V471.45a10.7,10.7,0,1,1,21.4,0v23.09Zm65.34,0H244.13V471.45a10.71,10.71,0,1,1,21.41,0v23.09Zm16.89,0V471.45a27.64,27.64,0,0,0-27.6-27.61h0a27.64,27.64,0,0,0-27.6,27.61v23.09H217.09V471.45a27.64,27.64,0,0,0-27.6-27.61h0a27.64,27.64,0,0,0-27.6,27.61v23.09H151.75V471.45a27.64,27.64,0,0,0-27.6-27.61h0a27.64,27.64,0,0,0-27.6,27.61v23.09H88.71V433.46H272.62l25.54,61.08Zm92,0H353V471.45a10.71,10.71,0,1,1,21.41,0v23.09Zm46.52,0H391.34V471.45a27.61,27.61,0,1,0-55.21,0v23.09H316.47l-25.53-61.08H421v61.08Z" transform="translate(0 -82.46)"/></g><g id="sun"><path d="M413.29,82.46a65.06,65.06,0,1,0,65,65.05A65.12,65.12,0,0,0,413.29,82.46Zm0,113.21a48.16,48.16,0,1,1,48.15-48.16A48.21,48.21,0,0,1,413.29,195.67Z" transform="translate(0 -82.46)"/></g><g id="moon"><path d="M361.39,186.66c30,7.76,60.72-7.95,71.32-35,9.44-24.09,1.2-52.69-20.6-69.14A63.45,63.45,0,0,1,439.26,88s.57.24,1.1.49c5.8,2.66,25.49,12.85,33.93,36.56,1.41,4,9.67,28.43-3.81,53.45-11.06,20.51-29.64,28.22-34.67,30.12-20.46,7.74-42.3,3.63-58-6.51A63.74,63.74,0,0,1,361.39,186.66Z" transform="translate(0 -82.46)"/></g></svg>