<svg xmlns="http://www.w3.org/2000/svg" id="logo" viewBox="0 0 323 156.06"><g id="LetterP"><path d="M273.06,51c-.12-6.69-.36-19.86-9.56-31.66C253,5.84,237.45,2.69,231.28,1.43A61.56,61.56,0,0,0,217.35.23H149l-30.51,156h36.58l8.29-42.82h41.1a74.33,74.33,0,0,0,33-7.5c6.28-3.08,20.79-10.21,29.4-26.87A57.82,57.82,0,0,0,273.06,51ZM229.58,71.46c-7.6,10.66-19.78,12-21.68,12.13H168.8q5.64-26.28,11.3-52.54h29.8c1,0,14.3-.28,21.28,10.08A22.72,22.72,0,0,1,234.9,54,29.35,29.35,0,0,1,229.58,71.46Z" transform="translate(0 -0.17)" fill="#302e28"/></g><g id="LetterR"><path d="M123.79.23C115.52.18,99.05.12,82.11.23c-5.94,0-12.56.1-21.06.33C55.35.72,50.83.85,48.53,1,45,1.24,23.39,2.72,10,19.17-3.74,36.05.36,57.5,1.31,62.42A60.9,60.9,0,0,0,15.05,90.24a62.77,62.77,0,0,0,29.6,19l-27,47h39l23.5-42.82h30.37l8,42.82h36.58ZM68,83.59a30.68,30.68,0,0,1-30.71-29A23.14,23.14,0,0,1,42.65,39a23.48,23.48,0,0,1,17.07-8H94l10.09,52.54Z" transform="translate(0 -0.17)" fill="#bea761"/></g></svg>