<svg xmlns="http://www.w3.ord/3000/svg" style="display: none;">
                <symbol id="coin-gold-ring" viewbox="0 0 105.41 100.25">
                    <path d="M357,399.24a53.41,53.41,0,0,1-2.49,10.83,67.93,67.93,0,0,1-4,9.56,57.71,57.71,0,0,1-4.7,7.71,56.94,56.94,0,0,1-9.55,10.26,34.56,34.56,0,0,1-11.39,5.24,44.3,44.3,0,0,1-8.2,1l-1.58.11c-2,.13-4,.29-6.05.48-1.62.12-3.25.18-4.87.18-.82,0-1.63,0-2.44-.05a52.47,52.47,0,0,1-11.12-1.47,41.32,41.32,0,0,1-9-3.62,57.28,57.28,0,0,1-17.44-14.13,40.6,40.6,0,0,1-7.58-13.86,51.34,51.34,0,0,1-1.45-19.42,48.65,48.65,0,0,1,1.94-8.35,49.78,49.78,0,0,1,2.09-5.35c.74-1.56,1.49-3.07,2.29-4.6s1.6-3,2.46-4.49c1-1.3,2.05-2.52,3.15-3.75,1.56-1.73,3.22-3.41,4.94-5a43.12,43.12,0,0,1,4.71-3.92A45.24,45.24,0,0,1,280.9,354a42.64,42.64,0,0,1,5.93-3,42.21,42.21,0,0,1,5.5-1.83,36,36,0,0,1,5.88-1.41,35.25,35.25,0,0,1,6.65-.37c1.19,0,2.37.08,3.55.19s2.36.26,3.52.47a44.75,44.75,0,0,1,8.89,2.73,64.07,64.07,0,0,1,11,5.94,64.92,64.92,0,0,1,9.41,7.67,87.82,87.82,0,0,1,7.17,8.45c3.71,4.86,6,8.88,7.32,12.64a37.82,37.82,0,0,1,1.12,4.08A44,44,0,0,1,357,399.24Z" transform="translate(-253.29 -345.87)" fill="none" stroke="#bea761" stroke-miterlimit="10" stroke-width="3"/>
                </symbol>
                <symbol id="post-grey" viewBox="0 0 24 24">
                    <path fill="#7F7F7F" d="M17.8,20C17.4,21.2 16.3,22 15,22H5C3.3,22 2,20.7 2,19V18H5L14.2,18C14.6,19.2 15.7,20 17,20H17.8M19,2H8C6.3,2 5,3.3 5,5V16H16V17C16,17.6 16.4,18 17,18H18V5C18,4.4 18.4,4 19,4C19.6,4 20,4.4 20,5V6H22V5C22,3.3 20.7,2 19,2Z" />
                </symbol>
                <symbol id="cal" viewBox="0 -2 20 20" fill="currentColor" xmlns="http://www.w3.org/2000/svg">
                    <path fill-rule="evenodd" d="M16 2H4a2 2 0 00-2 2v12a2 2 0 002 2h12a2 2 0 002-2V4a2 2 0 00-2-2zM3 5.857C3 5.384 3.448 5 4 5h12c.552 0 1 .384 1 .857v10.286c0 .473-.448.857-1 .857H4c-.552 0-1-.384-1-.857V5.857z" clip-rule="evenodd"/>
                    <path fill-rule="evenodd" d="M8.5 9a1 1 0 100-2 1 1 0 000 2zm3 0a1 1 0 100-2 1 1 0 000 2zm3 0a1 1 0 100-2 1 1 0 000 2zm-9 3a1 1 0 100-2 1 1 0 000 2zm3 0a1 1 0 100-2 1 1 0 000 2zm3 0a1 1 0 100-2 1 1 0 000 2zm3 0a1 1 0 100-2 1 1 0 000 2zm-9 3a1 1 0 100-2 1 1 0 000 2zm3 0a1 1 0 100-2 1 1 0 000 2zm3 0a1 1 0 100-2 1 1 0 000 2z" clip-rule="evenodd"/>
                </symbol>
                <symbol id="location" viewBox="0 0 24 24">
                    <path fill="none" d="M0 0h24v24H0V0z"/>
                    <path d="M4 11.5v4c0 .83.67 1.5 1.5 1.5S7 16.33 7 15.5v-4c0-.83-.67-1.5-1.5-1.5S4 10.67 4 11.5zm6 0v4c0 .83.67 1.5 1.5 1.5s1.5-.67 1.5-1.5v-4c0-.83-.67-1.5-1.5-1.5s-1.5.67-1.5 1.5zM3.5 22h16c.83 0 1.5-.67 1.5-1.5s-.67-1.5-1.5-1.5h-16c-.83 0-1.5.67-1.5 1.5S2.67 22 3.5 22zM16 11.5v4c0 .83.67 1.5 1.5 1.5s1.5-.67 1.5-1.5v-4c0-.83-.67-1.5-1.5-1.5s-1.5.67-1.5 1.5zM10.57 1.49l-7.9 4.16c-.41.21-.67.64-.67 1.1C2 7.44 2.56 8 3.25 8h16.51C20.44 8 21 7.44 21 6.75c0-.46-.26-.89-.67-1.1l-7.9-4.16c-.58-.31-1.28-.31-1.86 0z"/>
                </symbol>
                <symbol id="flag" viewBox="2 0 18 18">
                    <path fill-rule="evenodd" d="M5.5 3a.5.5 0 01.5.5v13a.5.5 0 01-1 0v-13a.5.5 0 01.5-.5z" clip-rule="evenodd"/>
                    <path fill-rule="evenodd" d="M5.762 4.558C6.735 3.909 7.348 3.5 8.5 3.5c.653 0 1.139.325 1.495.562l.032.022c.392.26.646.416.973.416.168 0 .356-.042.587-.126.187-.068.376-.153.593-.25.058-.027.117-.053.18-.08.57-.255 1.278-.544 2.14-.544a.5.5 0 01.5.5v6a.5.5 0 01-.5.5c-.638 0-1.18.21-1.734.457l-.159.07c-.22.1-.453.205-.678.287A2.718 2.718 0 0111 11.5c-.653 0-1.139-.325-1.495-.563l-.032-.021c-.391-.26-.646-.416-.973-.416-.833 0-1.218.246-2.223.916a.5.5 0 11-.515-.858C6.735 9.909 7.348 9.5 8.5 9.5c.653 0 1.139.325 1.495.563l.032.021c.392.26.646.416.973.416.168 0 .356-.042.587-.126.187-.068.376-.153.593-.25.058-.027.117-.053.18-.08.456-.204 1-.43 1.64-.512V4.543c-.433.074-.83.234-1.234.414l-.159.07c-.22.1-.453.205-.678.287A2.72 2.72 0 0111 5.5c-.653 0-1.139-.325-1.495-.562l-.032-.022c-.391-.26-.646-.416-.973-.416-.833 0-1.218.246-2.223.916a.5.5 0 01-.554-.832l.04-.026z" clip-rule="evenodd"/>
                </symbol>
                <symbol id="document" viewBox="1 0 18 18">
                    <path fill-rule="evenodd" d="M6 3h8a2 2 0 012 2v10a2 2 0 01-2 2H6a2 2 0 01-2-2V5a2 2 0 012-2zm0 1a1 1 0 00-1 1v10a1 1 0 001 1h8a1 1 0 001-1V5a1 1 0 00-1-1H6z" clip-rule="evenodd"/>
                    <path fill-rule="evenodd" d="M6.5 14a.5.5 0 01.5-.5h3a.5.5 0 010 1H7a.5.5 0 01-.5-.5zm0-2a.5.5 0 01.5-.5h6a.5.5 0 010 1H7a.5.5 0 01-.5-.5zm0-2a.5.5 0 01.5-.5h6a.5.5 0 010 1H7a.5.5 0 01-.5-.5zm0-2a.5.5 0 01.5-.5h6a.5.5 0 010 1H7a.5.5 0 01-.5-.5zm0-2a.5.5 0 01.5-.5h6a.5.5 0 010 1H7a.5.5 0 01-.5-.5z" clip-rule="evenodd"/>
                </symbol>
                <symbol id="envelope" viewBox="2 2 16 15">
                    <path fill-rule="evenodd" d="M16 5H4a1 1 0 00-1 1v8a1 1 0 001 1h12a1 1 0 001-1V6a1 1 0 00-1-1zM4 4a2 2 0 00-2 2v8a2 2 0 002 2h12a2 2 0 002-2V6a2 2 0 00-2-2H4z" clip-rule="evenodd"/>
                    <path fill-rule="evenodd" d="M2.071 6.243a.5.5 0 01.686-.172L10 10.417l7.243-4.346a.5.5 0 11.514.858L10 11.583 2.243 6.93a.5.5 0 01-.172-.686z" clip-rule="evenodd"/>
                </symbol>
                <symbol id="twitter" viewBox="0 -1 24 24">
                    <path d="M23.954 4.569c-.885.389-1.83.654-2.825.775 1.014-.611 1.794-1.574 2.163-2.723-.951.555-2.005.959-3.127 1.184-.896-.959-2.173-1.559-3.591-1.559-2.717 0-4.92 2.203-4.92 4.917 0 .39.045.765.127 1.124C7.691 8.094 4.066 6.13 1.64 3.161c-.427.722-.666 1.561-.666 2.475 0 1.71.87 3.213 2.188 4.096-.807-.026-1.566-.248-2.228-.616v.061c0 2.385 1.693 4.374 3.946 4.827-.413.111-.849.171-1.296.171-.314 0-.615-.03-.916-.086.631 1.953 2.445 3.377 4.604 3.417-1.68 1.319-3.809 2.105-6.102 2.105-.39 0-.779-.023-1.17-.067 2.189 1.394 4.768 2.209 7.557 2.209 9.054 0 13.999-7.496 13.999-13.986 0-.209 0-.42-.015-.63.961-.689 1.8-1.56 2.46-2.548l-.047-.02z"/>
                </symbol>
                <symbol id="linkedin" viewBox="-3 -1 30 24">
                    <path d="M20.447 20.452h-3.554v-5.569c0-1.328-.027-3.037-1.852-3.037-1.853 0-2.136 1.445-2.136 2.939v5.667H9.351V9h3.414v1.561h.046c.477-.9 1.637-1.85 3.37-1.85 3.601 0 4.267 2.37 4.267 5.455v6.286zM5.337 7.433c-1.144 0-2.063-.926-2.063-2.065 0-1.138.92-2.063 2.063-2.063 1.14 0 2.064.925 2.064 2.063 0 1.139-.925 2.065-2.064 2.065zm1.782 13.019H3.555V9h3.564v11.452zM22.225 0H1.771C.792 0 0 .774 0 1.729v20.542C0 23.227.792 24 1.771 24h20.451C23.2 24 24 23.227 24 22.271V1.729C24 .774 23.2 0 22.222 0h.003z"/>
                </symbol>
                <symbol id="link" viewBox="0 0 17 17">
                    <path fill-rule="evenodd" d="M3.5 15A1.5 1.5 0 005 16.5h8a1.5 1.5 0 001.5-1.5v-4a.5.5 0 00-1 0v4a.5.5 0 01-.5.5H5a.5.5 0 01-.5-.5V7a.5.5 0 01.5-.5h4a.5.5 0 000-1H5A1.5 1.5 0 003.5 7v8zm7-11a.5.5 0 01.5-.5h5a.5.5 0 01.5.5v5a.5.5 0 01-1 0V4.5H11a.5.5 0 01-.5-.5z" clip-rule="evenodd"/>
                    <path fill-rule="evenodd" d="M16.354 3.646a.5.5 0 010 .708l-8 8a.5.5 0 01-.708-.708l8-8a.5.5 0 01.708 0z" clip-rule="evenodd"/>
                </symbol>
            </svg>