<svg xmlns="http://www.w3.ord/3000/svg" style="display: none;">
                <symbol id="coin-gold-ring" viewbox="0 0 105.41 100.25">
                    <path d="M357,399.24a53.41,53.41,0,0,1-2.49,10.83,67.93,67.93,0,0,1-4,9.56,57.71,57.71,0,0,1-4.7,7.71,56.94,56.94,0,0,1-9.55,10.26,34.56,34.56,0,0,1-11.39,5.24,44.3,44.3,0,0,1-8.2,1l-1.58.11c-2,.13-4,.29-6.05.48-1.62.12-3.25.18-4.87.18-.82,0-1.63,0-2.44-.05a52.47,52.47,0,0,1-11.12-1.47,41.32,41.32,0,0,1-9-3.62,57.28,57.28,0,0,1-17.44-14.13,40.6,40.6,0,0,1-7.58-13.86,51.34,51.34,0,0,1-1.45-19.42,48.65,48.65,0,0,1,1.94-8.35,49.78,49.78,0,0,1,2.09-5.35c.74-1.56,1.49-3.07,2.29-4.6s1.6-3,2.46-4.49c1-1.3,2.05-2.52,3.15-3.75,1.56-1.73,3.22-3.41,4.94-5a43.12,43.12,0,0,1,4.71-3.92A45.24,45.24,0,0,1,280.9,354a42.64,42.64,0,0,1,5.93-3,42.21,42.21,0,0,1,5.5-1.83,36,36,0,0,1,5.88-1.41,35.25,35.25,0,0,1,6.65-.37c1.19,0,2.37.08,3.55.19s2.36.26,3.52.47a44.75,44.75,0,0,1,8.89,2.73,64.07,64.07,0,0,1,11,5.94,64.92,64.92,0,0,1,9.41,7.67,87.82,87.82,0,0,1,7.17,8.45c3.71,4.86,6,8.88,7.32,12.64a37.82,37.82,0,0,1,1.12,4.08A44,44,0,0,1,357,399.24Z" transform="translate(-253.29 -345.87)" fill="none" stroke="#bea761" stroke-miterlimit="10" stroke-width="3"/>
                </symbol>
                <symbol id="arrow-right" viewBox="3 4.2 13 13">
                    <path fill-rule="evenodd" d="M12.146 6.646a.5.5 0 01.708 0l3 3a.5.5 0 010 .708l-3 3a.5.5 0 01-.708-.708L14.793 10l-2.647-2.646a.5.5 0 010-.708z" clip-rule="evenodd"/>
                    <path fill-rule="evenodd" d="M4 10a.5.5 0 01.5-.5H15a.5.5 0 010 1H4.5A.5.5 0 014 10z" clip-rule="evenodd"/>
                </symbol>
                <symbol id="cal" viewBox="0 -2 20 20" fill="currentColor" xmlns="http://www.w3.org/2000/svg">
                    <path fill-rule="evenodd" d="M16 2H4a2 2 0 00-2 2v12a2 2 0 002 2h12a2 2 0 002-2V4a2 2 0 00-2-2zM3 5.857C3 5.384 3.448 5 4 5h12c.552 0 1 .384 1 .857v10.286c0 .473-.448.857-1 .857H4c-.552 0-1-.384-1-.857V5.857z" clip-rule="evenodd"/>
                    <path fill-rule="evenodd" d="M8.5 9a1 1 0 100-2 1 1 0 000 2zm3 0a1 1 0 100-2 1 1 0 000 2zm3 0a1 1 0 100-2 1 1 0 000 2zm-9 3a1 1 0 100-2 1 1 0 000 2zm3 0a1 1 0 100-2 1 1 0 000 2zm3 0a1 1 0 100-2 1 1 0 000 2zm3 0a1 1 0 100-2 1 1 0 000 2zm-9 3a1 1 0 100-2 1 1 0 000 2zm3 0a1 1 0 100-2 1 1 0 000 2zm3 0a1 1 0 100-2 1 1 0 000 2z" clip-rule="evenodd"/>
                </symbol>
                <symbol id="location" viewBox="0 0 24 24">
                    <path fill="none" d="M0 0h24v24H0V0z"/>
                    <path d="M4 11.5v4c0 .83.67 1.5 1.5 1.5S7 16.33 7 15.5v-4c0-.83-.67-1.5-1.5-1.5S4 10.67 4 11.5zm6 0v4c0 .83.67 1.5 1.5 1.5s1.5-.67 1.5-1.5v-4c0-.83-.67-1.5-1.5-1.5s-1.5.67-1.5 1.5zM3.5 22h16c.83 0 1.5-.67 1.5-1.5s-.67-1.5-1.5-1.5h-16c-.83 0-1.5.67-1.5 1.5S2.67 22 3.5 22zM16 11.5v4c0 .83.67 1.5 1.5 1.5s1.5-.67 1.5-1.5v-4c0-.83-.67-1.5-1.5-1.5s-1.5.67-1.5 1.5zM10.57 1.49l-7.9 4.16c-.41.21-.67.64-.67 1.1C2 7.44 2.56 8 3.25 8h16.51C20.44 8 21 7.44 21 6.75c0-.46-.26-.89-.67-1.1l-7.9-4.16c-.58-.31-1.28-.31-1.86 0z"/>
                </symbol>
                <symbol id="flag" viewBox="2 0 18 18">
                    <path fill-rule="evenodd" d="M5.5 3a.5.5 0 01.5.5v13a.5.5 0 01-1 0v-13a.5.5 0 01.5-.5z" clip-rule="evenodd"/>
                    <path fill-rule="evenodd" d="M5.762 4.558C6.735 3.909 7.348 3.5 8.5 3.5c.653 0 1.139.325 1.495.562l.032.022c.392.26.646.416.973.416.168 0 .356-.042.587-.126.187-.068.376-.153.593-.25.058-.027.117-.053.18-.08.57-.255 1.278-.544 2.14-.544a.5.5 0 01.5.5v6a.5.5 0 01-.5.5c-.638 0-1.18.21-1.734.457l-.159.07c-.22.1-.453.205-.678.287A2.718 2.718 0 0111 11.5c-.653 0-1.139-.325-1.495-.563l-.032-.021c-.391-.26-.646-.416-.973-.416-.833 0-1.218.246-2.223.916a.5.5 0 11-.515-.858C6.735 9.909 7.348 9.5 8.5 9.5c.653 0 1.139.325 1.495.563l.032.021c.392.26.646.416.973.416.168 0 .356-.042.587-.126.187-.068.376-.153.593-.25.058-.027.117-.053.18-.08.456-.204 1-.43 1.64-.512V4.543c-.433.074-.83.234-1.234.414l-.159.07c-.22.1-.453.205-.678.287A2.72 2.72 0 0111 5.5c-.653 0-1.139-.325-1.495-.562l-.032-.022c-.391-.26-.646-.416-.973-.416-.833 0-1.218.246-2.223.916a.5.5 0 01-.554-.832l.04-.026z" clip-rule="evenodd"/>
                </symbol>
                <symbol id="document" viewBox="1 0 18 18">
                    <path fill-rule="evenodd" d="M6 3h8a2 2 0 012 2v10a2 2 0 01-2 2H6a2 2 0 01-2-2V5a2 2 0 012-2zm0 1a1 1 0 00-1 1v10a1 1 0 001 1h8a1 1 0 001-1V5a1 1 0 00-1-1H6z" clip-rule="evenodd"/>
                    <path fill-rule="evenodd" d="M6.5 14a.5.5 0 01.5-.5h3a.5.5 0 010 1H7a.5.5 0 01-.5-.5zm0-2a.5.5 0 01.5-.5h6a.5.5 0 010 1H7a.5.5 0 01-.5-.5zm0-2a.5.5 0 01.5-.5h6a.5.5 0 010 1H7a.5.5 0 01-.5-.5zm0-2a.5.5 0 01.5-.5h6a.5.5 0 010 1H7a.5.5 0 01-.5-.5zm0-2a.5.5 0 01.5-.5h6a.5.5 0 010 1H7a.5.5 0 01-.5-.5z" clip-rule="evenodd"/>
                </symbol>
                <symbol id="envelope" viewBox="2 2 16 15">
                    <path fill-rule="evenodd" d="M16 5H4a1 1 0 00-1 1v8a1 1 0 001 1h12a1 1 0 001-1V6a1 1 0 00-1-1zM4 4a2 2 0 00-2 2v8a2 2 0 002 2h12a2 2 0 002-2V6a2 2 0 00-2-2H4z" clip-rule="evenodd"/>
                    <path fill-rule="evenodd" d="M2.071 6.243a.5.5 0 01.686-.172L10 10.417l7.243-4.346a.5.5 0 11.514.858L10 11.583 2.243 6.93a.5.5 0 01-.172-.686z" clip-rule="evenodd"/>
                </symbol>
                <symbol id="twitter" viewBox="-1 -1 25 25">
                    <path d="M23.954 4.569c-.885.389-1.83.654-2.825.775 1.014-.611 1.794-1.574 2.163-2.723-.951.555-2.005.959-3.127 1.184-.896-.959-2.173-1.559-3.591-1.559-2.717 0-4.92 2.203-4.92 4.917 0 .39.045.765.127 1.124C7.691 8.094 4.066 6.13 1.64 3.161c-.427.722-.666 1.561-.666 2.475 0 1.71.87 3.213 2.188 4.096-.807-.026-1.566-.248-2.228-.616v.061c0 2.385 1.693 4.374 3.946 4.827-.413.111-.849.171-1.296.171-.314 0-.615-.03-.916-.086.631 1.953 2.445 3.377 4.604 3.417-1.68 1.319-3.809 2.105-6.102 2.105-.39 0-.779-.023-1.17-.067 2.189 1.394 4.768 2.209 7.557 2.209 9.054 0 13.999-7.496 13.999-13.986 0-.209 0-.42-.015-.63.961-.689 1.8-1.56 2.46-2.548l-.047-.02z"/>
                </symbol>
                <symbol id="github" viewBox="-2 -2 28 28">
                    <path d="M12 .297c-6.63 0-12 5.373-12 12 0 5.303 3.438 9.8 8.205 11.385.6.113.82-.258.82-.577 0-.285-.01-1.04-.015-2.04-3.338.724-4.042-1.61-4.042-1.61C4.422 18.07 3.633 17.7 3.633 17.7c-1.087-.744.084-.729.084-.729 1.205.084 1.838 1.236 1.838 1.236 1.07 1.835 2.809 1.305 3.495.998.108-.776.417-1.305.76-1.605-2.665-.3-5.466-1.332-5.466-5.93 0-1.31.465-2.38 1.235-3.22-.135-.303-.54-1.523.105-3.176 0 0 1.005-.322 3.3 1.23.96-.267 1.98-.399 3-.405 1.02.006 2.04.138 3 .405 2.28-1.552 3.285-1.23 3.285-1.23.645 1.653.24 2.873.12 3.176.765.84 1.23 1.91 1.23 3.22 0 4.61-2.805 5.625-5.475 5.92.42.36.81 1.096.81 2.22 0 1.606-.015 2.896-.015 3.286 0 .315.21.69.825.57C20.565 22.092 24 17.592 24 12.297c0-6.627-5.373-12-12-12"/>
                </symbol>
                <symbol id="medium" viewBox="-3 -1 30 24">
                    <path d="M0 0v24h24V0H0zm19.938 5.686L18.651 6.92a.376.376 0 0 0-.143.362v9.067a.376.376 0 0 0 .143.361l1.257 1.234v.271h-6.322v-.27l1.302-1.265c.128-.128.128-.165.128-.36V8.99l-3.62 9.195h-.49L6.69 8.99v6.163a.85.85 0 0 0 .233.707l1.694 2.054v.271H3.815v-.27L5.51 15.86a.82.82 0 0 0 .218-.707V8.027a.624.624 0 0 0-.203-.527L4.019 5.686v-.27h4.674l3.613 7.923 3.176-7.924h4.456v.271z"/>
                </symbol>
                <symbol id="reddit" viewBox="-1 -1 26 26">
                    <path d="M2.204 14.049c-.06.276-.091.56-.091.847 0 3.443 4.402 6.249 9.814 6.249 5.41 0 9.812-2.804 9.812-6.249 0-.274-.029-.546-.082-.809l-.015-.032c-.021-.055-.029-.11-.029-.165-.302-1.175-1.117-2.241-2.296-3.103-.045-.016-.088-.039-.126-.07-.026-.02-.045-.042-.067-.064-1.792-1.234-4.356-2.008-7.196-2.008-2.815 0-5.354.759-7.146 1.971-.014.018-.029.033-.049.049-.039.033-.084.06-.13.075-1.206.862-2.042 1.937-2.354 3.123 0 .058-.014.114-.037.171l-.008.015zm9.773 5.441c-1.794 0-3.057-.389-3.863-1.197-.173-.174-.173-.457 0-.632.176-.165.46-.165.635 0 .63.629 1.685.943 3.228.943 1.542 0 2.591-.3 3.219-.929.165-.164.45-.164.629 0 .165.18.165.465 0 .645-.809.808-2.065 1.198-3.862 1.198l.014-.028zm-3.606-7.573c-.914 0-1.677.765-1.677 1.677 0 .91.763 1.65 1.677 1.65s1.651-.74 1.651-1.65c0-.912-.739-1.677-1.651-1.677zm7.233 0c-.914 0-1.678.765-1.678 1.677 0 .91.764 1.65 1.678 1.65s1.651-.74 1.651-1.65c0-.912-.739-1.677-1.651-1.677zm4.548-1.595c1.037.833 1.8 1.821 2.189 2.904.45-.336.719-.864.719-1.449 0-1.002-.815-1.816-1.818-1.816-.399 0-.778.129-1.09.363v-.002zM2.711 9.963c-1.003 0-1.817.816-1.817 1.818 0 .543.239 1.048.644 1.389.401-1.079 1.172-2.053 2.213-2.876-.302-.21-.663-.329-1.039-.329v-.002zm9.217 12.079c-5.906 0-10.709-3.205-10.709-7.142 0-.275.023-.544.068-.809C.494 13.598 0 12.729 0 11.777c0-1.496 1.227-2.713 2.725-2.713.674 0 1.303.246 1.797.682 1.856-1.191 4.357-1.941 7.112-1.992l1.812-5.524.404.095s.016 0 .016.002l4.223.993c.344-.798 1.138-1.36 2.065-1.36 1.229 0 2.231 1.004 2.231 2.234 0 1.232-1.003 2.234-2.231 2.234s-2.23-1.004-2.23-2.23l-3.851-.912-1.467 4.477c2.65.105 5.047.854 6.844 2.021.494-.464 1.144-.719 1.833-.719 1.498 0 2.718 1.213 2.718 2.711 0 .987-.54 1.886-1.378 2.365.029.255.059.494.059.749-.015 3.938-4.806 7.143-10.72 7.143l-.034.009zm8.179-19.187c-.74 0-1.34.599-1.34 1.338 0 .738.6 1.34 1.34 1.34.732 0 1.33-.6 1.33-1.334 0-.733-.598-1.332-1.347-1.332l.017-.012z"/>
                </symbol>
                <symbol id="linkedin" viewBox="-3 -1 30 24">
                    <path d="M20.447 20.452h-3.554v-5.569c0-1.328-.027-3.037-1.852-3.037-1.853 0-2.136 1.445-2.136 2.939v5.667H9.351V9h3.414v1.561h.046c.477-.9 1.637-1.85 3.37-1.85 3.601 0 4.267 2.37 4.267 5.455v6.286zM5.337 7.433c-1.144 0-2.063-.926-2.063-2.065 0-1.138.92-2.063 2.063-2.063 1.14 0 2.064.925 2.064 2.063 0 1.139-.925 2.065-2.064 2.065zm1.782 13.019H3.555V9h3.564v11.452zM22.225 0H1.771C.792 0 0 .774 0 1.729v20.542C0 23.227.792 24 1.771 24h20.451C23.2 24 24 23.227 24 22.271V1.729C24 .774 23.2 0 22.222 0h.003z"/>
                </symbol>
                <symbol id="link" viewBox="0 0 17 17">
                    <path fill-rule="evenodd" d="M3.5 15A1.5 1.5 0 005 16.5h8a1.5 1.5 0 001.5-1.5v-4a.5.5 0 00-1 0v4a.5.5 0 01-.5.5H5a.5.5 0 01-.5-.5V7a.5.5 0 01.5-.5h4a.5.5 0 000-1H5A1.5 1.5 0 003.5 7v8zm7-11a.5.5 0 01.5-.5h5a.5.5 0 01.5.5v5a.5.5 0 01-1 0V4.5H11a.5.5 0 01-.5-.5z" clip-rule="evenodd"/>
                    <path fill-rule="evenodd" d="M16.354 3.646a.5.5 0 010 .708l-8 8a.5.5 0 01-.708-.708l8-8a.5.5 0 01.708 0z" clip-rule="evenodd"/>
                </symbol>
                <symbol id="star" viewBox="0 0 20 20">
                    <path fill-rule="evenodd" d="M4.866 16.85c-.078.444.36.791.746.593l4.39-2.256 4.389 2.256c.386.198.824-.149.746-.592l-.83-4.73 3.523-3.356c.329-.314.158-.888-.283-.95l-4.898-.696-2.184-4.327a.513.513 0 00-.927 0L7.354 7.12l-4.898.696c-.441.062-.612.636-.282.95l3.522 3.356-.83 4.73zm4.905-2.767l-3.686 1.894.694-3.957a.565.565 0 00-.163-.505L3.71 8.745l4.052-.576a.525.525 0 00.393-.288l1.847-3.658 1.846 3.658c.08.157.226.264.393.288l4.053.575-2.907 2.77a.564.564 0 00-.163.506l.694 3.957-3.686-1.894a.503.503 0 00-.461 0z" clip-rule="evenodd"/>
                </symbol>
                <symbol id="down" viewBox="2 2 16 16">
                    <path fill-rule="evenodd" d="M3.646 6.646a.5.5 0 01.708 0L10 12.293l5.646-5.647a.5.5 0 01.708.708l-6 6a.5.5 0 01-.708 0l-6-6a.5.5 0 010-.708z" clip-rule="evenodd"/>
                </symbol>
                <symbol id="fathom" viewBox="0 -8 27 27">
                    <defs><clipPath id="A"><path fill="none" d="M0 0h20v20H0z"></path></clipPath></defs><g clip-path="url(#A)"><path d="M0 6.667L10 10 8 4z" fill="#a89ef5"></path><path d="M16.667 10L20 0 8 4l2 6 6 2z" fill="#533feb"></path><path d="M16 12l-6-2 3.333 10z" fill="#8efdd2"></path></g>
                </symbol>
            </svg>